<svg xmlns="http://www.w3.org/2000/svg" width="99" height="45.674" viewBox="0 0 99 45.674"><path d="M-16.724-23.6a3.384,3.384,0,0,1-.821,2.4,4.092,4.092,0,0,1-2.228,1.173,38.709,38.709,0,0,1-5.394.879q-.235,2.287-.41,4.544t-.352,4.485q-.117,1.055-.235,2.9a20.082,20.082,0,0,1-.557,3.606A10.209,10.209,0,0,1-28.01-.529,2.628,2.628,0,0,1-30.326.79a2.481,2.481,0,0,1-2.2-1.231,9.559,9.559,0,0,1-1.2-2.873,19.165,19.165,0,0,1-.528-3.313q-.117-1.671-.117-2.609,0-2.4.147-4.72t.264-4.661q-1.524.117-3.049.147t-3.049.029q-.7,0-1.759-.029t-2.111-.147a8.745,8.745,0,0,1-1.964-.44,2.472,2.472,0,0,1-1.319-.967,3.449,3.449,0,0,1-.44-1.436q-.147-1.026-.235-2.228T-47.974-26v-4.28q0-1.29.117-2.638.059-1.29.147-3.078a14.156,14.156,0,0,1,.586-3.43,8.029,8.029,0,0,1,1.466-2.814,3.4,3.4,0,0,1,2.785-1.173,2.043,2.043,0,0,1,1.788,1.055A8.834,8.834,0,0,1-40.03-39.9a15.762,15.762,0,0,1,.5,2.844q.117,1.436.117,2.2,0,1.759-.147,3.518T-40-27.881q1.7-.117,3.371-.205t3.371-.205q.059-.586.205-2.375t.381-3.811q.235-2.023.469-3.782a10.312,10.312,0,0,1,.469-2.287,4.356,4.356,0,0,1,1.466-1.847,3.759,3.759,0,0,1,2.287-.733,2.442,2.442,0,0,1,2.169.938,5.671,5.671,0,0,1,.879,2.228,23.846,23.846,0,0,1,.352,3.4q.059,1.759.059,3.459,0,2.521-.176,5.042,1.29.117,2.521.293t2.521.469A3.521,3.521,0,0,1-17.486-26,3.841,3.841,0,0,1-16.724-23.6Zm34.051,3.283a27.8,27.8,0,0,1-1.2,8,24.6,24.6,0,0,1-3.518,7.27A18.422,18.422,0,0,1,6.832.233,15.5,15.5,0,0,1-1.142,2.256,12.26,12.26,0,0,1-8,.262a18.832,18.832,0,0,1-5.189-5.072,24.537,24.537,0,0,1-3.283-6.743,23.686,23.686,0,0,1-1.143-7.065,21.238,21.238,0,0,1,.645-5.042,28.193,28.193,0,0,1,1.847-5.218,32.3,32.3,0,0,1,2.873-4.954A22.6,22.6,0,0,1-8.5-37.995a17.724,17.724,0,0,1,4.515-2.844,12.615,12.615,0,0,1,5.072-1.055,14.153,14.153,0,0,1,7.622,1.935,15.361,15.361,0,0,1,5.013,5.013,22.112,22.112,0,0,1,2.756,6.918A35.571,35.571,0,0,1,17.327-20.317Zm-8.5-.293a17.492,17.492,0,0,0-.41-3.459,16,16,0,0,0-1.261-3.752,9.732,9.732,0,0,0-2.2-2.99,4.618,4.618,0,0,0-3.225-1.231,6.329,6.329,0,0,0-4.075,1.436,12.7,12.7,0,0,0-3.02,3.547,19.222,19.222,0,0,0-1.906,4.515,16.229,16.229,0,0,0-.674,4.339,16.864,16.864,0,0,0,.41,3.459,14.843,14.843,0,0,0,1.29,3.664A9.636,9.636,0,0,0-3.986-8.151a4.79,4.79,0,0,0,3.254,1.2A6.329,6.329,0,0,0,3.343-8.386,12.436,12.436,0,0,0,6.334-11.9,18.638,18.638,0,0,0,8.18-16.36,16.414,16.414,0,0,0,8.825-20.61Zm42.2-2.99a3.384,3.384,0,0,1-.821,2.4,4.092,4.092,0,0,1-2.228,1.173,38.708,38.708,0,0,1-5.394.879q-.235,2.287-.41,4.544t-.352,4.485q-.117,1.055-.235,2.9a20.083,20.083,0,0,1-.557,3.606,10.209,10.209,0,0,1-1.29,3.078A2.628,2.628,0,0,1,37.423.79a2.481,2.481,0,0,1-2.2-1.231,9.559,9.559,0,0,1-1.2-2.873A19.165,19.165,0,0,1,33.5-6.627q-.117-1.671-.117-2.609,0-2.4.147-4.72t.264-4.661q-1.524.117-3.049.147t-3.049.029q-.7,0-1.759-.029t-2.111-.147a8.745,8.745,0,0,1-1.964-.44,2.472,2.472,0,0,1-1.319-.967,3.449,3.449,0,0,1-.44-1.436q-.147-1.026-.235-2.228T19.775-26v-4.28q0-1.29.117-2.638.059-1.29.147-3.078a14.156,14.156,0,0,1,.586-3.43,8.029,8.029,0,0,1,1.466-2.814,3.4,3.4,0,0,1,2.785-1.173,2.043,2.043,0,0,1,1.788,1.055A8.834,8.834,0,0,1,27.72-39.9a15.762,15.762,0,0,1,.5,2.844q.117,1.436.117,2.2,0,1.759-.147,3.518t-.44,3.459q1.7-.117,3.371-.205t3.371-.205q.059-.586.205-2.375t.381-3.811q.235-2.023.469-3.782a10.312,10.312,0,0,1,.469-2.287,4.356,4.356,0,0,1,1.466-1.847,3.759,3.759,0,0,1,2.287-.733,2.442,2.442,0,0,1,2.169.938,5.671,5.671,0,0,1,.879,2.228,23.846,23.846,0,0,1,.352,3.4q.059,1.759.059,3.459,0,2.521-.176,5.042,1.29.117,2.521.293t2.521.469A3.521,3.521,0,0,1,50.264-26,3.841,3.841,0,0,1,51.026-23.6Z" transform="translate(47.974 43.418)" fill="#58534e"/></svg>